<svg height="710" viewBox="0 0 571 710" width="571" xmlns="http://www.w3.org/2000/svg"><g fill="#a3d54a" fill-rule="evenodd"><circle cx="279" cy="261" r="5"/><circle cx="301" cy="262" r="5"/><circle cx="291" cy="278" r="5"/><circle cx="272" cy="280" r="5"/><circle cx="259" cy="268" r="5"/><circle cx="261" cy="249" r="5"/><circle cx="277" cy="239" r="5"/><circle cx="294" cy="246" r="5"/><circle cx="321" cy="265" r="5"/><circle cx="315" cy="284" r="5"/><circle cx="302" cy="295" r="5"/><circle cx="283" cy="302" r="5"/><circle cx="265" cy="300" r="5"/><circle cx="249" cy="290" r="5"/><circle cx="240" cy="274" r="5"/><circle cx="237" cy="255" r="5"/><circle cx="243" cy="237" r="5"/><circle cx="257" cy="224" r="5"/><circle cx="275" cy="217" r="5"/><circle cx="293" cy="220" r="5"/><circle cx="309" cy="232" r="5"/><circle cx="319" cy="247" r="5"/><circle cx="342" cy="268" r="5"/><circle cx="336" cy="286" r="5"/><circle cx="327" cy="302" r="5"/><circle cx="313" cy="314" r="5"/><circle cx="294" cy="322" r="5"/><circle cx="275" cy="323" r="5"/><circle cx="258" cy="320" r="5"/><circle cx="241" cy="310" r="5"/><circle cx="227" cy="297" r="5"/><circle cx="219" cy="281" r="5"/><circle cx="216" cy="262" r="5"/><circle cx="217" cy="243" r="5"/><circle cx="227" cy="226" r="5"/><circle cx="238" cy="212" r="5"/><circle cx="254" cy="201" r="5"/><circle cx="272" cy="198" r="5"/><circle cx="291" cy="198" r="5"/><circle cx="309" cy="204" r="5"/><circle cx="325" cy="216" r="5"/><circle cx="336" cy="232" r="5"/><circle cx="342" cy="249" r="5"/><circle cx="363" cy="270" r="5"/><circle cx="359" cy="288" r="5"/><circle cx="351" cy="306" r="5"/><circle cx="338" cy="320" r="5"/><circle cx="323" cy="333" r="5"/><circle cx="306" cy="340" r="5"/><circle cx="288" cy="344" r="5"/><circle cx="268" cy="344" r="5"/><circle cx="250" cy="339" r="5"/><circle cx="233" cy="331" r="5"/><circle cx="219" cy="319" r="5"/><circle cx="207" cy="304" r="5"/><circle cx="199" cy="288" r="5"/><circle cx="196" cy="269" r="5"/><circle cx="196" cy="250" r="5"/><circle cx="199" cy="232" r="5"/><circle cx="208" cy="214" r="5"/><circle cx="220" cy="200" r="5"/><circle cx="234" cy="188" r="5"/><circle cx="252" cy="180" r="5"/><circle cx="270" cy="176" r="5"/><circle cx="290" cy="176" r="5"/><circle cx="307" cy="181" r="5"/><circle cx="325" cy="190" r="5"/><circle cx="340" cy="201" r="5"/><circle cx="352" cy="216" r="5"/><circle cx="359" cy="233" r="5"/><circle cx="363" cy="252" r="5"/><circle cx="383" cy="274" r="5"/><circle cx="380" cy="292" r="5"/><circle cx="372" cy="309" r="5"/><circle cx="363" cy="325" r="5"/><circle cx="350" cy="339" r="5"/><circle cx="335" cy="351" r="5"/><circle cx="317" cy="359" r="5"/><circle cx="299" cy="364" r="5"/><circle cx="281" cy="367" r="5"/><circle cx="261" cy="364" r="5"/><circle cx="243" cy="359" r="5"/><circle cx="227" cy="352" r="5"/><circle cx="211" cy="340" r="5"/><circle cx="187" cy="311" r="5"/><circle cx="178" cy="294" r="5"/><circle cx="175" cy="277" r="5"/><circle cx="174" cy="257" r="5"/><circle cx="176" cy="239" r="5"/><circle cx="182" cy="220" r="5"/><circle cx="191" cy="203" r="5"/><circle cx="201" cy="188" r="5"/><circle cx="216" cy="176" r="5"/><circle cx="232" cy="165" r="5"/><circle cx="249" cy="159" r="5"/><circle cx="268" cy="155" r="5"/><circle cx="287" cy="155" r="5"/><circle cx="306" cy="158" r="5"/><circle cx="323" cy="164" r="5"/><circle cx="340" cy="174" r="5"/><circle cx="354" cy="186" r="5"/><circle cx="367" cy="201" r="5"/><circle cx="376" cy="217" r="5"/><circle cx="382" cy="235" r="5"/><circle cx="385" cy="254" r="5"/><circle cx="405" cy="277" r="5"/><circle cx="401" cy="294" r="5"/><circle cx="395" cy="311" r="5"/><circle cx="385" cy="329" r="5"/><circle cx="375" cy="344" r="5"/><circle cx="362" cy="356" r="5"/><circle cx="346" cy="369" r="5"/><circle cx="329" cy="378" r="5"/><circle cx="310" cy="384" r="5"/><circle cx="291" cy="386" r="5"/><circle cx="274" cy="387" r="5"/><circle cx="254" cy="384" r="5"/><circle cx="236" cy="380" r="5"/><circle cx="219" cy="371" r="5"/><circle cx="167" cy="319" r="5"/><circle cx="159" cy="300" r="5"/><circle cx="154" cy="282" r="5"/><circle cx="153" cy="264" r="5"/><circle cx="153" cy="245" r="5"/><circle cx="156" cy="226" r="5"/><circle cx="164" cy="208" r="5"/><circle cx="172" cy="192" r="5"/><circle cx="184" cy="176" r="5"/><circle cx="198" cy="163" r="5"/><circle cx="213" cy="152" r="5"/><circle cx="230" cy="143" r="5"/><circle cx="248" cy="138" r="5"/><circle cx="266" cy="135" r="5"/><circle cx="285" cy="134" r="5"/><circle cx="305" cy="136" r="5"/><circle cx="322" cy="141" r="5"/><circle cx="340" cy="149" r="5"/><circle cx="355" cy="159" r="5"/><circle cx="370" cy="171" r="5"/><circle cx="382" cy="186" r="5"/><circle cx="392" cy="201" r="5"/><circle cx="399" cy="220" r="5"/><circle cx="404" cy="239" r="5"/><circle cx="405" cy="257" r="5"/><circle cx="427" cy="278" r="5"/><circle cx="423" cy="297" r="5"/><circle cx="416" cy="315" r="5"/><circle cx="409" cy="333" r="5"/><circle cx="398" cy="348" r="5"/><circle cx="385" cy="363" r="5"/><circle cx="372" cy="375" r="5"/><circle cx="356" cy="386" r="5"/><circle cx="340" cy="396" r="5"/><circle cx="322" cy="401" r="5"/><circle cx="305" cy="407" r="5"/><circle cx="285" cy="408" r="5"/><circle cx="266" cy="408" r="5"/><circle cx="246" cy="404" r="5"/><circle cx="139" cy="308" r="5"/><circle cx="135" cy="290" r="5"/><circle cx="133" cy="270" r="5"/><circle cx="131" cy="252" r="5"/><circle cx="133" cy="232" r="5"/><circle cx="138" cy="214" r="5"/><circle cx="146" cy="198" r="5"/><circle cx="155" cy="180" r="5"/><circle cx="167" cy="165" r="5"/><circle cx="178" cy="152" r="5"/><circle cx="194" cy="140" r="5"/><circle cx="211" cy="130" r="5"/><circle cx="227" cy="122" r="5"/><circle cx="245" cy="116" r="5"/><circle cx="264" cy="113" r="5"/><circle cx="283" cy="113" r="5"/><circle cx="302" cy="114" r="5"/><circle cx="321" cy="118" r="5"/><circle cx="338" cy="125" r="5"/><circle cx="355" cy="134" r="5"/><circle cx="371" cy="145" r="5"/><circle cx="385" cy="156" r="5"/><circle cx="397" cy="171" r="5"/><circle cx="408" cy="187" r="5"/><circle cx="416" cy="204" r="5"/><circle cx="423" cy="221" r="5"/><circle cx="427" cy="241" r="5"/><circle cx="427" cy="259" r="5"/><circle cx="446" cy="281" r="5"/><circle cx="443" cy="299" r="5"/><circle cx="438" cy="318" r="5"/><circle cx="430" cy="335" r="5"/><circle cx="421" cy="352" r="5"/><circle cx="411" cy="367" r="5"/><circle cx="398" cy="382" r="5"/><circle cx="383" cy="394" r="5"/><circle cx="367" cy="404" r="5"/><circle cx="351" cy="413" r="5"/><circle cx="333" cy="420" r="5"/><circle cx="315" cy="425" r="5"/><circle cx="297" cy="429" r="5"/><circle cx="277" cy="430" r="5"/><circle cx="259" cy="429" r="5"/><circle cx="240" cy="425" r="5"/><circle cx="119" cy="314" r="5"/><circle cx="114" cy="295" r="5"/><circle cx="111" cy="278" r="5"/><circle cx="110" cy="259" r="5"/><circle cx="111" cy="239" r="5"/><circle cx="115" cy="221" r="5"/><circle cx="121" cy="203" r="5"/><circle cx="127" cy="186" r="5"/><circle cx="137" cy="169" r="5"/><circle cx="148" cy="153" r="5"/><circle cx="162" cy="140" r="5"/><circle cx="175" cy="127" r="5"/><circle cx="191" cy="116" r="5"/><circle cx="208" cy="107" r="5"/><circle cx="225" cy="100" r="5"/><circle cx="243" cy="96" r="5"/><circle cx="261" cy="93" r="5"/><circle cx="281" cy="91" r="5"/><circle cx="299" cy="93" r="5"/><circle cx="319" cy="96" r="5"/><circle cx="336" cy="102" r="5"/><circle cx="354" cy="110" r="5"/><circle cx="370" cy="118" r="5"/><circle cx="385" cy="129" r="5"/><circle cx="399" cy="141" r="5"/><circle cx="413" cy="156" r="5"/><circle cx="424" cy="171" r="5"/><circle cx="432" cy="188" r="5"/><circle cx="440" cy="205" r="5"/><circle cx="444" cy="224" r="5"/><circle cx="446" cy="243" r="5"/><circle cx="448" cy="262" r="5"/><circle cx="468" cy="284" r="5"/><circle cx="465" cy="302" r="5"/><circle cx="459" cy="320" r="5"/><circle cx="453" cy="339" r="5"/><circle cx="444" cy="355" r="5"/><circle cx="434" cy="371" r="5"/><circle cx="423" cy="386" r="5"/><circle cx="409" cy="400" r="5"/><circle cx="395" cy="412" r="5"/><circle cx="378" cy="423" r="5"/><circle cx="363" cy="431" r="5"/><circle cx="344" cy="439" r="5"/><circle cx="326" cy="445" r="5"/><circle cx="307" cy="448" r="5"/><circle cx="290" cy="450" r="5"/><circle cx="270" cy="450" r="5"/><circle cx="99" cy="322" r="5"/><circle cx="94" cy="303" r="5"/><circle cx="91" cy="284" r="5"/><circle cx="90" cy="265" r="5"/><circle cx="90" cy="247" r="5"/><circle cx="92" cy="228" r="5"/><circle cx="95" cy="209" r="5"/><circle cx="102" cy="190" r="5"/><circle cx="110" cy="174" r="5"/><circle cx="119" cy="158" r="5"/><circle cx="129" cy="141" r="5"/><circle cx="143" cy="127" r="5"/><circle cx="156" cy="115" r="5"/><circle cx="171" cy="104" r="5"/><circle cx="188" cy="94" r="5"/><circle cx="205" cy="85" r="5"/><circle cx="223" cy="79" r="5"/><circle cx="241" cy="74" r="5"/><circle cx="260" cy="71" r="5"/><circle cx="278" cy="70" r="5"/><circle cx="298" cy="71" r="5"/><circle cx="317" cy="74" r="5"/><circle cx="335" cy="79" r="5"/><circle cx="352" cy="85" r="5"/><circle cx="370" cy="94" r="5"/><circle cx="385" cy="104" r="5"/><circle cx="400" cy="114" r="5"/><circle cx="415" cy="127" r="5"/><circle cx="427" cy="141" r="5"/><circle cx="438" cy="156" r="5"/><circle cx="448" cy="172" r="5"/><circle cx="456" cy="190" r="5"/><circle cx="461" cy="208" r="5"/><circle cx="466" cy="226" r="5"/><circle cx="469" cy="246" r="5"/><circle cx="469" cy="264" r="5"/><circle cx="489" cy="286" r="5"/><circle cx="486" cy="304" r="5"/><circle cx="481" cy="323" r="5"/><circle cx="475" cy="340" r="5"/><circle cx="466" cy="358" r="5"/><circle cx="457" cy="375" r="5"/><circle cx="445" cy="390" r="5"/><circle cx="434" cy="404" r="5"/><circle cx="420" cy="417" r="5"/><circle cx="405" cy="430" r="5"/><circle cx="389" cy="441" r="5"/><circle cx="374" cy="449" r="5"/><circle cx="355" cy="457" r="5"/><circle cx="338" cy="462" r="5"/><circle cx="321" cy="468" r="5"/><circle cx="301" cy="470" r="5"/><circle cx="282" cy="472" r="5"/><circle cx="262" cy="472" r="5"/><circle cx="74" cy="310" r="5"/><circle cx="70" cy="291" r="5"/><circle cx="68" cy="273" r="5"/><circle cx="68" cy="253" r="5"/><circle cx="70" cy="235" r="5"/><circle cx="72" cy="216" r="5"/><circle cx="77" cy="198" r="5"/><circle cx="83" cy="180" r="5"/><circle cx="92" cy="163" r="5"/><circle cx="102" cy="145" r="5"/><circle cx="113" cy="131" r="5"/><circle cx="125" cy="116" r="5"/><circle cx="138" cy="104" r="5"/><circle cx="153" cy="91" r="5"/><circle cx="168" cy="80" r="5"/><circle cx="185" cy="71" r="5"/><circle cx="203" cy="64" r="5"/><circle cx="220" cy="58" r="5"/><circle cx="238" cy="53" r="5"/><circle cx="258" cy="50" r="5"/><circle cx="275" cy="49" r="5"/><circle cx="295" cy="49" r="5"/><circle cx="314" cy="51" r="5"/><circle cx="333" cy="55" r="5"/><circle cx="351" cy="62" r="5"/><circle cx="385" cy="78" r="5"/><circle cx="401" cy="89" r="5"/><circle cx="416" cy="100" r="5"/><circle cx="430" cy="113" r="5"/><circle cx="443" cy="126" r="5"/><circle cx="454" cy="141" r="5"/><circle cx="464" cy="158" r="5"/><circle cx="472" cy="175" r="5"/><circle cx="479" cy="192" r="5"/><circle cx="485" cy="210" r="5"/><circle cx="489" cy="230" r="5"/><circle cx="489" cy="248" r="5"/><circle cx="490" cy="268" r="5"/><circle cx="510" cy="288" r="5"/><circle cx="506" cy="308" r="5"/><circle cx="502" cy="326" r="5"/><circle cx="495" cy="343" r="5"/><circle cx="489" cy="362" r="5"/><circle cx="479" cy="378" r="5"/><circle cx="469" cy="394" r="5"/><circle cx="458" cy="409" r="5"/><circle cx="445" cy="423" r="5"/><circle cx="430" cy="436" r="5"/><circle cx="416" cy="448" r="5"/><circle cx="400" cy="458" r="5"/><circle cx="385" cy="468" r="5"/><circle cx="367" cy="476" r="5"/><circle cx="350" cy="482" r="5"/><circle cx="331" cy="488" r="5"/><circle cx="313" cy="491" r="5"/><circle cx="293" cy="491" r="5"/><circle cx="275" cy="491" r="5"/><circle cx="256" cy="491" r="5"/><circle cx="50" cy="298" r="5"/><circle cx="48" cy="280" r="5"/><circle cx="46" cy="261" r="5"/><circle cx="48" cy="241" r="5"/><circle cx="50" cy="223" r="5"/><circle cx="54" cy="204" r="5"/><circle cx="59" cy="186" r="5"/><circle cx="66" cy="168" r="5"/><circle cx="74" cy="151" r="5"/><circle cx="83" cy="135" r="5"/><circle cx="94" cy="119" r="5"/><circle cx="107" cy="104" r="5"/><circle cx="121" cy="91" r="5"/><circle cx="135" cy="79" r="5"/><circle cx="149" cy="67" r="5"/><circle cx="166" cy="58" r="5"/><circle cx="182" cy="49" r="5"/><circle cx="200" cy="42" r="5"/><circle cx="219" cy="35" r="5"/><circle cx="237" cy="32" r="5"/><circle cx="416" cy="73" r="5"/><circle cx="430" cy="85" r="5"/><circle cx="445" cy="98" r="5"/><circle cx="510" cy="232" r="5"/><circle cx="511" cy="250" r="5"/><circle cx="511" cy="270" r="5"/><circle cx="531" cy="291" r="5"/><circle cx="527" cy="310" r="5"/><circle cx="524" cy="329" r="5"/><circle cx="517" cy="347" r="5"/><circle cx="510" cy="364" r="5"/><circle cx="502" cy="382" r="5"/><circle cx="491" cy="398" r="5"/><circle cx="482" cy="413" r="5"/><circle cx="470" cy="428" r="5"/><circle cx="457" cy="441" r="5"/><circle cx="443" cy="454" r="5"/><circle cx="427" cy="465" r="5"/><circle cx="412" cy="476" r="5"/><circle cx="396" cy="486" r="5"/><circle cx="378" cy="493" r="5"/><circle cx="360" cy="501" r="5"/><circle cx="342" cy="506" r="5"/><circle cx="323" cy="510" r="5"/><circle cx="306" cy="513" r="5"/><circle cx="286" cy="514" r="5"/><circle cx="268" cy="514" r="5"/><circle cx="248" cy="511" r="5"/><circle cx="27" cy="268" r="5"/><circle cx="27" cy="248" r="5"/><circle cx="27" cy="230" r="5"/><circle cx="31" cy="210" r="5"/><circle cx="34" cy="192" r="5"/><circle cx="41" cy="174" r="5"/><circle cx="48" cy="156" r="5"/><circle cx="57" cy="140" r="5"/><circle cx="66" cy="124" r="5"/><circle cx="77" cy="108" r="5"/><circle cx="88" cy="94" r="5"/><circle cx="102" cy="79" r="5"/><circle cx="117" cy="66" r="5"/><circle cx="131" cy="54" r="5"/><circle cx="147" cy="45" r="5"/><circle cx="163" cy="35" r="5"/><circle cx="180" cy="28" r="5"/><circle cx="198" cy="20" r="5"/><circle cx="216" cy="16" r="5"/><circle cx="234" cy="10" r="5"/><circle cx="532" cy="253" r="5"/><circle cx="532" cy="273" r="5"/><circle cx="551" cy="293" r="5"/><circle cx="550" cy="313" r="5"/><circle cx="544" cy="331" r="5"/><circle cx="481" cy="446" r="5"/><circle cx="468" cy="459" r="5"/><circle cx="454" cy="473" r="5"/><circle cx="438" cy="484" r="5"/><circle cx="423" cy="495" r="5"/><circle cx="407" cy="505" r="5"/><circle cx="389" cy="511" r="5"/><circle cx="371" cy="519" r="5"/><circle cx="354" cy="525" r="5"/><circle cx="336" cy="529" r="5"/><circle cx="317" cy="533" r="5"/><circle cx="298" cy="535" r="5"/><circle cx="278" cy="535" r="5"/><circle cx="260" cy="535" r="5"/><circle cx="241" cy="533" r="5"/><circle cx="5" cy="235" r="5"/><circle cx="23" cy="163" r="5"/><circle cx="30" cy="145" r="5"/><circle cx="48" cy="111" r="5"/><circle cx="59" cy="96" r="5"/><circle cx="72" cy="81" r="5"/><circle cx="83" cy="67" r="5"/><circle cx="97" cy="54" r="5"/><circle cx="111" cy="42" r="5"/><circle cx="127" cy="32" r="5"/><circle cx="143" cy="21" r="5"/><circle cx="160" cy="13" r="5"/><circle cx="178" cy="5" r="5"/><circle cx="554" cy="255" r="5"/><circle cx="553" cy="275" r="5"/><circle cx="493" cy="465" r="5"/><circle cx="479" cy="478" r="5"/><circle cx="465" cy="491" r="5"/><circle cx="449" cy="502" r="5"/><circle cx="434" cy="513" r="5"/><circle cx="417" cy="522" r="5"/><circle cx="400" cy="530" r="5"/><circle cx="383" cy="537" r="5"/><circle cx="366" cy="543" r="5"/><circle cx="347" cy="548" r="5"/><circle cx="329" cy="552" r="5"/><circle cx="309" cy="554" r="5"/><circle cx="291" cy="555" r="5"/><circle cx="272" cy="555" r="5"/><circle cx="253" cy="555" r="5"/><circle cx="475" cy="509" r="5"/><circle cx="461" cy="521" r="5"/><circle cx="445" cy="530" r="5"/><circle cx="428" cy="540" r="5"/><circle cx="412" cy="548" r="5"/><circle cx="395" cy="555" r="5"/><circle cx="376" cy="562" r="5"/><circle cx="358" cy="567" r="5"/><circle cx="340" cy="571" r="5"/><circle cx="321" cy="575" r="5"/><circle cx="302" cy="576" r="5"/><circle cx="283" cy="578" r="5"/><circle cx="264" cy="578" r="5"/><circle cx="540" cy="474" r="5"/><circle cx="528" cy="488" r="5"/><circle cx="517" cy="502" r="5"/><circle cx="457" cy="548" r="5"/><circle cx="440" cy="558" r="5"/><circle cx="423" cy="567" r="5"/><circle cx="405" cy="574" r="5"/><circle cx="387" cy="582" r="5"/><circle cx="370" cy="585" r="5"/><circle cx="351" cy="591" r="5"/><circle cx="333" cy="595" r="5"/><circle cx="314" cy="597" r="5"/><circle cx="294" cy="598" r="5"/><circle cx="275" cy="598" r="5"/><circle cx="257" cy="598" r="5"/><circle cx="566" cy="477" r="5"/><circle cx="553" cy="491" r="5"/><circle cx="540" cy="506" r="5"/><circle cx="527" cy="521" r="5"/><circle cx="513" cy="533" r="5"/><circle cx="434" cy="585" r="5"/><circle cx="416" cy="592" r="5"/><circle cx="399" cy="599" r="5"/><circle cx="382" cy="604" r="5"/><circle cx="363" cy="609" r="5"/><circle cx="344" cy="614" r="5"/><circle cx="325" cy="616" r="5"/><circle cx="306" cy="619" r="5"/><circle cx="287" cy="619" r="5"/><circle cx="566" cy="511" r="5"/><circle cx="551" cy="525" r="5"/><circle cx="538" cy="538" r="5"/><circle cx="524" cy="551" r="5"/><circle cx="509" cy="563" r="5"/><circle cx="494" cy="574" r="5"/><circle cx="411" cy="617" r="5"/><circle cx="392" cy="624" r="5"/><circle cx="374" cy="628" r="5"/><circle cx="355" cy="632" r="5"/><circle cx="336" cy="636" r="5"/><circle cx="317" cy="638" r="5"/><circle cx="299" cy="640" r="5"/><circle cx="279" cy="641" r="5"/><circle cx="564" cy="543" r="5"/><circle cx="535" cy="569" r="5"/><circle cx="520" cy="582" r="5"/><circle cx="505" cy="592" r="5"/><circle cx="385" cy="646" r="5"/><circle cx="367" cy="652" r="5"/><circle cx="348" cy="656" r="5"/><circle cx="330" cy="659" r="5"/><circle cx="310" cy="660" r="5"/><circle cx="291" cy="661" r="5"/><circle cx="547" cy="587" r="5"/><circle cx="397" cy="666" r="5"/><circle cx="378" cy="672" r="5"/><circle cx="360" cy="675" r="5"/><circle cx="340" cy="679" r="5"/><circle cx="322" cy="681" r="5"/><circle cx="303" cy="682" r="5"/><circle cx="315" cy="703" r="5"/><circle cx="295" cy="705" r="5"/></g></svg>