<svg height="368" viewBox="0 0 696 368" width="696" xmlns="http://www.w3.org/2000/svg"><g fill="#b4e8ff" fill-rule="evenodd"><path d="m361.059438 1.00693833c33.268063-.88919255 63.636555 3.34282914 93.690313 10.73048157 13.634012 3.3695717 26.5582 8.7180984 39.087295 14.5346211 15.904116 7.3876524 33.221188 12.0676132 47.35074 23.1791772 1.928583 1.5310158 4.707618 1.9856406 7.071472 3.0018606 27.977852 12.0676132 53.926673 27.7922815 72.984827 51.6132822 15.636257 19.562236 31.20555 39.679382 39.562745 64.202376 3.73663 10.91768 10.366135 20.81914 13.493387 32.158017 1.955369 7.013255 3.723237 14.106739 7.104955 20.658684.79688 1.557758 1.279025 3.516656 1.178578 5.248241-.863844 15.911867 3.636184 31.208653 5.116103 46.81298 1.091525 11.572874 4.493332 22.918436 3.214306 34.772108-.783487 7.340853 2.176353 14.507879 3.703148 21.534506 2.243318 10.422941 1.486616 20.230802-.348216 30.346203-.803577 4.312249-1.814744 8.4373-6.937543 8.189931-4.787976-.227312-8.122819-3.302715-9.053628-8.243417-1.279026-6.846114-2.343764-13.732342-3.555825-20.598513-4.727708-26.602234-7.848263-53.425095-11.236677-80.214528-2.109388-16.547004-2.363854-33.655604-8.029068-49.520671-4.031275-11.27202-8.216568-22.537354-14.203213-33.174236-7.707637-13.645429-13.399636-28.420733-22.051475-41.59148-7.808085-11.907158-16.285816-22.885009-27.817137-32.030989-18.917528-15.0026173-39.482387-26.2412089-61.366451-36.2028397-19.660836-8.9520964-39.736853-16.8010593-59.437868-25.5258433-19.138512-8.4841004-38.477917-13.5451437-59.176706-14.3942223-1.47992-.0601709-3.020108.0334283-4.386188-.4211965-23.799254-7.8021632-48.01369-4.3122496-72.06741-2.1795246-23.363984 2.0658684-46.694486 4.6131042-69.670075 9.9415739-11.169712 2.5739784-21.790313 6.5252025-32.631898 9.8880886-16.473316 5.0944716-32.986811 10.0151161-49.259234 15.6310691-10.011222 3.443114-19.734497 7.7553636-29.350628 12.167898-6.984418 3.2024304-13.928657 6.6789727-18.843866 13.0169767-1.566974 2.0324401-3.555826 3.7773969-6.154056 4.4860767-9.977741 2.7143773-17.457698 9.2596367-24.214436 16.5002044-4.319223 4.61979-10.4732791 7.260625-14.1027659 12.047556-12.0201637 15.764783-28.4064258 28.648046-32.9667219 49.567471-1.2790258 5.870008-6.7433453 10.422941-7.9018347 16.60049-4.3058302 22.791409-12.2612366 44.954366-11.725519 68.55474.0468753 1.450787.3950917 3.282658-.3214306 4.285506-5.9598583 8.357073-5.1964607 18.920413-9.3683615 27.899253-1.8013505 3.904424-3.0937692 8.477414-3.0736798 12.729493.0870541 11.419104-4.017882 21.848731-6.5893265 32.639384-1.339294 5.709552-5.3370866 9.720947-9.24112862 9.440149-4.45315257-.340968-8.83264397-5.107843-9.23443218-10.790652-.34821644-4.740132-.50223525-9.59392.14732234-14.273881 2.53796215-18.452417 2.85269624-37.192317 5.92637598-55.497649 3.97770318-23.680602 7.80138758-47.488231 14.75901998-70.580495 7.7143334-25.612757 22.4934428-46.91995 39.5560484-67.164123 9.2344322-10.971165 18.0135044-22.2632419 29.732327-30.6604287 13.05142-9.3198076 24.261311-21.3673638 39.62971-27.2774858 22.406388-8.5977565 42.844015-21.2871359 65.899961-28.9288434 20.759057-6.8929136 41.719009-13.5652006 62.391011-20.9394817 17.042517-6.07057772 35.196647-9.30643633 53.444528-10.31597073 17.163053-.95604913 34.252444-4.5997329 49.272626-1.85192734"/><path d="m521.208181 316.503038c.458521-5.781224 1.661309-11.542627.458521-17.3701-1.947054-9.5671-4.698183-18.850094-7.741701-28.179337-7.941059-24.320783-25.663907-42.47713-38.389536-63.745427-1.481888-2.477667-3.329264-4.750514-4.631731-7.30086-.996785-1.942491-1.528404-4.321052-3.495395-5.398011-17.164648-9.560493-30.036472-26.217024-50.842711-30.0029-4.598504-.832496-9.303332-1.750885-13.901836-2.35874-14.440101-1.883027-28.96659-3.032664-42.954814-7.386752-.996786-.303927-2.226155-.29732-3.249521-.059464-9.449528 2.068026-18.825958 1.149638-28.189097-.574819-1.774278-.336963-3.761204-.773032-5.422514-.336963-12.792082 3.402664-26.374947 2.841059-38.861348 7.551931-6.146844 2.312489-12.047815 5.028013-18.726279 5.596224-5.708258.475712-10.320053 3.574448-14.240743 7.499074-4.671602 4.671229-10.080825 7.994606-15.855537 11.238699-9.575787 5.391404-16.347283 14.198686-23.517494 22.35847-9.868178 11.185843-17.815882 23.118289-23.118781 37.535009-3.867528 10.492096-10.320054 20.57455-16.028313 30.604148-7.708475 13.498332-15.071398 27.115592-20.885981 41.532312-.544909 1.308209-1.375564 2.589989-2.319187 3.660341-1.721117 1.962312-3.794431 3.825518-6.585431 2.371953-2.478673-1.301601-1.721116-3.970874-1.049947-5.83408 4.870959-13.471904 5.369352-28.053802 12.951567-41.023565 5.768066-9.824777 10.472894-20.567943 14.446746-31.509322 2.432157-6.712827 5.801293-13.432261 10.207085-19.015271 4.432373-5.549975 7.050597-11.641733 9.861532-17.911884 4.997219-11.199056 13.85532-19.477769 22.713421-27.558268 11.615875-10.564774 24.527571-19.167235 39.04077-25.628991 8.485968-3.766055 15.503339-10.234419 25.032609-12.652622 25.889845-6.580684 52.07208-11.357627 78.752708-10.50531 12.120913.369999 24.866478-.971245 36.54216 4.598551 1.568276.753211 3.575137.858925 5.382642.819282 22.274836-.482319 40.648917 9.765313 58.358474 21.340975 11.848459 7.730322 22.999167 16.504568 33.890711 25.582742 5.74813 4.770335 9.914694 10.564773 12.692403 17.383314 2.5119 6.11158 5.934197 11.727626 10.459604 16.425283 10.918125 11.311378 17.576652 25.364707 25.278483 38.651611 3.894109 6.732648 6.060456 14.839576 7.349632 22.58972 2.80429 16.68296 5.143414 33.491455 4.146628 50.544414-.225938 3.719805-.970205 7.122468-2.418866 10.465667-4.020369 9.256566-9.821661 10.75638-17.77601 4.459802-1.641374-1.294995-2.38564-3.719805-4.937411-3.825519-1.913829 1.433744-2.2328 3.70659-3.242876 5.596225-4.053595 7.578358-11.88833 8.424069-17.48362 1.78392-2.604933-3.072307-4.053595-6.759076-5.130123-10.703523-3.315973-12.229766-7.14363-24.32739-10.439668-36.57037-5.581999-20.706693-17.184584-38.12965-29.857051-55.01743-2.604933-3.495163-5.542128-6.878005-7.429376-10.729952-4.093466-8.338177-11.137417-13.729581-18.9057-17.489028-12.712339-6.138008-25.956297-11.19245-39.299933-16.028856-18.905701-6.858184-38.316439-5.602832-57.049363-3.092129-13.044601 1.744278-27.876771 2.56356-38.555667 13.062262-12.931632 1.275173-19.198091 12.064589-27.823609 19.424912-7.323051 6.270151-16.267541 10.994237-20.387588 20.587765-.717686 1.678206-3.369135 2.609809-5.209866 3.719804-1.236014.753211-3.568493.944817-3.821012 1.849992-2.591642 9.071566-11.49626 12.520479-16.792514 19.107771-1.548341 1.92267-3.415652 4.43998-3.402362 6.666577.119614 11.906017-9.216944 19.134199-13.802158 28.661656-.923688 1.902849-2.285961 3.89159-4.007078 5.054442-2.744483 1.869813-5.60858 2.094454-6.359492-2.325704-.611362-3.561234-1.53505-7.201753.325617-10.657274 6.412654-11.793696 10.021017-24.737031 15.443531-36.953583 5.861099-13.253868 15.038172-24.353818 24.015888-35.466982 12.160784-15.03779 27.15244-27.28077 42.808619-38.493041 7.602151-5.444261 17.337424-7.393359 26.155654-10.274061 17.995303-5.840687 37.067134-7.353716 55.71367-10.498702 8.485968-1.420529 16.427027 2.808023 24.839897 2.781594 11.642456-.046249 22.121995 3.726412 31.717718 10.135312 7.874606 5.272476 16.952 8.225856 24.986092 13.419046 23.577302 15.216182 39.818263 36.36555 52.935961 60.607048 6.532268 12.091017 13.988225 23.666679 18.254467 36.854477 1.760988 5.503725 3.64159 10.974414 5.435804 16.464925.551555 1.658386.524974 3.699983 3.940626 3.89159"/><path d="m73.6089357 260.629372c-1.8164521 11.760682-1.171046 25.519954-4.1718516 38.956022-.7052891 3.17268-1.3640025 6.516856-1.0246653 9.689536.6187914 6.140883-1.6434567 11.226405-4.5511108 16.285544-3.4066795 5.910023-10.206731 6.127691-13.5601811.211072-2.4285899-4.267617-3.0207666-9.089299-1.3640025-13.680121 5.5691224-15.573174 5.6622738-31.858718 6.7468222-48.025533 1.2775048-19.141615 4.4379984-37.795126 10.2998824-56.257352 4.7374136-14.926766 11.277972-28.844342 18.1578676-42.715747 4.770682-9.61698 13.4071467-16.160219 20.7461454-23.521364 17.559038-17.565169 37.140791-32.900888 57.667365-46.8316565 14.165665-9.6037875 30.726652-14.9597459 46.775306-20.7906169 30.653461-11.1274654 62.784038-15.4742346 95.08761-18.6667024 11.557426-1.1477054 22.795476-3.9773928 34.472668-4.8942379 16.361377-1.2862215 32.469914-1.7347501 48.937749-1.1081293 14.578193.5672567 28.610785 3.9773928 43.055904 4.6172055 5.349551.2374563 10.619258 2.4075429 15.922234 3.7465325 17.984872 4.4918814 36.162701 8.2516059 52.796878 17.0902565 6.034879 3.1924679 13.087771 4.4523054 19.568446 6.8466562 12.335906 4.5710335 23.766912 10.9361812 34.89185 17.8356054 4.331539 2.6845749 8.856036 4.9733899 13.387185 7.3149729 9.760935 5.032754 18.52382 11.51663 25.397062 20.210168 1.803145 2.282219 3.519792 4.67657 5.622352 6.635584 26.847561 24.86695 40.055098 57.167601 50.188639 91.018313 2.475165 8.24501 3.719402 16.925357 3.539753 25.645279-.013308.738753-.039923 1.477506.086497 2.176683 5.821962 28.620078.286108 57.438037 1.457154 86.124075.039922.718965.093152 1.457718.05323 2.170087-.425835 6.978576-3.200416 11.173637-7.778142 11.288496-6.247797.129193-8.024327-4.547376-8.789499-9.296502-2.215672-13.884597-5.98165-27.498757-6.048187-41.779114-.113112-20.652101-3.965587-40.862269-8.197322-61.072437-2.668122-12.809448-6.354256-25.176963-11.085016-37.227869-10.732371-27.472373-27.639348-50.571593-50.654396-69.475751-12.914775-10.612977-26.601375-19.972712-40.707158-28.864131-4.045431-2.552655-8.270512-4.214849-13.121038-4.97339-13.447069-2.0909345-25.210759-8.8782266-37.353708-14.4188733-6.03488-2.7505353-12.043145-5.2636143-18.530474-6.3189756-10.113579-1.6490019-19.748095-5.4614945-29.748562-6.9917684-9.947238-1.5170818-20.020895-2.5988271-29.981441-4.2478291-29.089848-4.7887017-58.119814-3.363964-86.956823 1.4972938-22.915243 3.8652607-45.897022 7.8756335-68.366468 13.6009684-20.060818 5.1185021-39.888757 11.7738741-56.78908 24.5107652-5.808655 4.373153-12.948044 6.648776-18.310903 11.734298-6.45406 6.1145-14.717919 10.481057-18.424014 19.240555-.532294 1.24005-1.756569 2.645-2.960884 3.034164-9.674437 3.20566-16.24161 10.969161-23.254579 17.268349-12.468979 11.213213-25.4702519 22.439619-30.2875096 39.998192-3.5131382 12.816043-7.8912536 25.242922-9.8807012 38.566858-1.0845483 7.288589-4.4180374 14.313337-2.9608835 23.844569"/><path d="m349.51787 90.250124c17.699847 2.3720064 34.827863.4905282 51.498414 4.555865 9.277115 2.2712129 18.480228 4.8246475 27.797708 6.827078 24.447451 5.24798 47.643602 14.413467 69.736455 25.446992 12.412094 6.222317 24.393632 15.206375 33.448742 26.542281 7.359799 9.239402 16.004537 17.235684 24.312903 25.446992 9.936402 9.837443 16.737825 21.462291 23.256697 33.382799 2.63715 4.811208 5.590488 9.454427 8.039269 14.413466 5.839403 11.853313 9.539485 23.874614 8.119999 37.206231-.484375 4.522267 1.520397 8.560726 3.047522 12.747015 3.659717 9.951675 7.51453 19.775679 4.197911 30.983913-1.648218 5.536922.013455 11.678604 1.09657 17.504467 1.271483 6.867395 2.576602 13.714632 1.574216 20.830651-.484374 3.507613-1.473305 6.134963-4.399733 8.386017-9.788399 7.532632-16.657097 5.604117-20.9021-6.134963-.376736-1.041533-.955294-2.062906-1.062933-3.131317-1.365667-14.951032-2.320961-29.96254-4.117182-44.853096-1.311847-10.905853-2.953338-21.878903-5.832675-32.455498-5.085931-18.754306-10.158407-37.508611-20.747369-54.35456-5.556851-8.836228-11.006062-17.343197-19.422067-23.733503-7.655806-5.825863-14.255407-12.733576-19.724801-20.70298-3.794266-5.510043-8.389095-10.065908-14.706144-12.982199-5.307936-2.46608-10.286229-5.617556-14.376501-10.092787-2.960066-3.252269-6.70724-5.805704-11.241522-6.766601-1.062933-.235185-2.152775-.665237-3.047522-1.276718-22.368678-15.098862-48.941995-17.208805-74.156372-22.510542-19.57007-4.098935-39.994523-2.976767-60.2777-1.753806-23.034693 1.39095-44.770993 8.412895-67.260764 11.819714-6.579419.994496-12.889741 3.218672-18.473501 7.082422-.908202.631639-1.69531 1.632854-2.697696 1.901636-16.8051 4.683537-29.69484 15.804417-43.459146 25.63514-4.985019 3.574809-8.55728 8.04332-12.243908 12.51855-4.480463 5.409249-8.712011 10.65723-15.284702 14.05061-5.570305 2.869254-9.727852 7.895489-11.537529 14.252197-4.399734 15.549073-14.672507 27.839157-23.445065 40.828076-2.81879 4.17957-5.307936 7.868611-5.227207 12.726856.087457 6.48438-1.419486 12.283365-5.025384 17.75309-1.345484 2.042748-2.408417 4.985918-2.065319 7.284009 2.179685 14.279075-5.73849 26.011435-9.337661 38.805487-1.271483 4.609621-4.951383 6.511258-9.095475 6.806919-4.01627.275502-5.072476-3.736078-6.7341489-6.48438-2.1662298-3.561369-3.2762544-7.512474-2.4891461-11.665165 3.666445-19.426262 7.56835-38.832365 11.228067-58.231749 2.785153-14.695688 10.582235-26.165985 16.374545-39.054111 8.564008-19.043247 22.900144-33.322322 37.606289-46.774891 8.564008-7.814854 17.464387-15.461719 25.880392-23.538636 6.821605-6.538136 15.822896-9.508184 23.929439-13.365214 11.160793-5.321896 21.978488-11.73236 34.229123-14.957752 6.572691-1.733647 12.492823-5.489884 19.193335-7.640145 23.297062-7.4923147 47.576327-9.1520472 71.44522-13.1770665 4.285368-.7257131 8.806196-.1007935 12.378457-.1007935"/><path d="m246.043337 299.476459c-.600371-20.700493 5.216556-41.012811 18.317982-57.617377 17.824344-22.554369 39.444366-40.765182 70.23005-42.893458 2.54157-.167317 5.276593-.301171 7.517978-1.331845 9.23237-4.256552 18.678205-2.168432 28.157393-1.780256 24.441766.997211 42.926518 14.242047 61.357903 28.397088 17.917735 13.746788 29.324782 32.278849 39.991371 51.426639 5.823597 10.480754 11.560475 21.001664 15.582959 32.526478 3.001855 8.566645 2.701669 17.226987 3.728971 25.81371.800494 6.478525-5.203215 9.731173-11.320327 7.027326-4.929712-2.168432-8.258435-6.097042-10.032864-11.129946-2.061273-5.856104-4.622856-11.705516-5.456704-17.769094-1.674368-12.046844-8.158373-21.8851-13.281538-32.365855-4.029156-8.225317-9.726008-15.413267-15.269432-22.674837-8.151703-10.621301-19.185185-18.003339-30.105264-25.077514-6.837557-4.443947-13.401612-9.530392-22.013599-11.792521-17.597537-4.638035-34.901559-5.575012-52.752587-2.355828-14.255472 2.583379-26.282902 8.225318-35.32849 19.950913-3.789007 4.899049-9.979498 7.428887-13.741822 12.548795-10.546515 14.335745-17.304022 30.143881-19.151831 47.97321-.520321 5.086445-1.427548 10.14612-2.46152 15.138867-.807165 3.868376-2.995184 7.154487-7.357879 6.625765-3.975789-.481874-6.430639-3.373117-6.584067-7.60959-.140086-4.029-.026683-8.064693-.026683-13.03067"/><path d="m458 320.643869c-.232405 5.700117.198228 11.386597-2.747845 16.527611-5.106069 8.911546-14.019475 9.13655-19.59719.463646-2.693161-4.179631-3.45873-9.013821-4.408855-13.793464-2.173668-10.984316-4.429361-21.85272-8.920242-32.305207-3.417717-7.963799-7.819737-14.754847-15.359221-18.620835-12.194414-6.252401-23.69845-14.37984-37.86147-15.995782-12.132896-1.370483-23.889843.736378-35.510082 3.975081-1.886579.511374-3.486071 1.418211-4.65493 2.938697-10.444544 13.288908-25.40731 23.407297-29.043761 41.46903-.348607 1.725035-1.373922 3.61371-2.658984 4.813735-2.118984 2.004586-4.572905 4.62964-7.676192 3.845533-3.274174-.81138-3.985059-4.247814-4.210628-7.241057-.813417-10.138844-.46481-20.141321 3.800501-29.680153 6.91746-15.470771 16.883523-27.696021 32.994642-34.821167 6.083536-2.686419 11.859478-6.613772 18.318964-8.018346 10.929859-2.359139 21.87339-6.57968 33.397932-2.488687 2.75468.97502 5.632398 2.400049 8.735685 1.506849 4.067083-1.159115 7.074675.68865 10.38986 2.768238 6.637207 4.172813 13.759729 7.616065 20.437949 11.747968 12.672895 7.827433 22.926047 18.504924 30.274138 31.098364 7.443788 12.763897 13.68454 26.495996 14.299729 41.809946"/><path d="m370.28728 278.025706c5.144542-.229643 9.832661 1.07805 14.103479 3.974111 13.12543 8.917828 19.41103 25.662677 15.420587 40.557619-.795481 2.96623-2.497288 3.993247-5.177144 4.22927-8.919815.797374-16.991987-.369981-22.873327-8.190623-2.15823-2.857788-3.475337-6.060041-5.392315-8.962481-3.833955-5.824018-8.730725-6.876551-14.468618-2.691934-5.124981 3.731709-10.289084 7.629272-12.401672 14.027399-.762879 2.309195-1.401872 5.084055-4.70116 4.733211-2.94067-.31895-5.555323-1.779738-6.637698-4.631147-.730277-1.907318-.938928-4.050659-1.095416-6.111072-.997611-14.65254 9.767458-29.030784 25.357573-34.10846 5.809616-1.89456 11.801802-2.513322 17.865711-2.825893"/></g></svg>