<svg width="975" height="626" viewBox="0 0 975 626" fill="none" xmlns="http://www.w3.org/2000/svg">
<g clip-path="url(#clip0_5529_8806)">
<path fill-rule="evenodd" clip-rule="evenodd" d="M631.912 1.76443C690.131 0.200696 743.278 7.61843 795.884 20.5694C819.741 26.4635 842.355 35.8459 864.287 46.0302C892.114 58.9812 922.426 67.1808 947.165 86.6473C950.533 89.3337 955.405 90.1357 959.535 91.8999C1008.49 113.05 1053.92 140.596 1087.26 182.336C1114.63 216.618 1141.87 251.862 1156.51 294.845C1163.04 313.971 1174.65 331.332 1180.12 351.2C1183.55 363.489 1186.64 375.919 1192.55 387.406C1193.96 390.133 1194.8 393.561 1194.62 396.608C1193.11 424.495 1200.97 451.299 1203.58 478.644C1205.48 498.913 1211.44 518.8 1209.21 539.57C1207.85 552.441 1213.02 564.991 1215.69 577.3C1219.62 595.564 1218.29 612.745 1215.09 630.487C1213.68 638.045 1211.92 645.283 1202.94 644.841C1194.56 644.44 1188.72 639.048 1187.1 630.387C1184.85 618.398 1182.99 606.329 1180.88 594.281C1172.6 547.669 1167.15 500.657 1161.22 453.705C1157.53 424.715 1157.09 394.724 1147.16 366.917C1140.11 347.17 1132.79 327.423 1122.3 308.778C1108.81 284.861 1098.85 258.979 1083.71 235.904C1070.04 215.034 1055.2 195.808 1035.04 179.77C1001.94 153.487 965.93 133.78 927.639 116.318C893.236 100.621 858.092 86.8678 823.61 71.5913C790.11 56.7158 756.269 47.8546 720.042 46.371C717.456 46.2708 714.75 46.4312 712.364 45.6293C670.705 31.9566 628.323 38.0712 586.243 41.8001C545.345 45.4288 504.527 49.8794 464.311 59.2218C444.765 63.7325 426.18 70.6491 407.195 76.5432C378.366 85.4645 349.457 94.0851 320.989 103.929C303.467 109.963 286.446 117.521 269.626 125.26C257.397 130.873 245.248 136.968 236.647 148.074C233.901 151.643 230.432 154.69 225.881 155.933C208.42 160.684 195.328 172.152 183.5 184.842C175.942 192.941 165.176 197.572 158.821 205.952C137.791 233.579 109.102 256.152 101.123 292.82C98.8778 303.105 89.315 311.084 87.2901 321.91C79.7521 361.845 65.8389 400.678 66.7611 442.037C66.8413 444.583 67.4427 447.79 66.1997 449.555C55.7748 464.21 57.098 482.714 49.8005 498.452C46.653 505.288 44.3876 513.307 44.4277 520.765C44.5881 540.773 37.3909 559.056 32.9001 577.962C30.5545 587.966 23.5578 595.002 16.7215 594.501C8.92282 593.9 1.26451 585.54 0.562836 575.596C-0.0386016 567.296 -0.319272 558.776 0.823459 550.576C5.2741 518.239 5.81539 485.4 11.1882 453.324C18.1449 411.825 24.8409 370.105 37.0099 329.648C50.5022 284.761 76.3841 247.432 106.235 211.947C122.394 192.721 137.771 172.934 158.28 158.218C181.114 141.879 200.741 120.769 227.646 110.424C266.859 95.3682 302.625 73.115 342.981 59.723C379.308 47.6341 415.996 35.9461 452.182 23.0353C482.014 12.3898 513.789 6.73632 545.726 4.95205C575.758 3.26803 605.669 -3.10721 631.952 1.70429" fill="#C4EDFF"/>
<path fill-rule="evenodd" clip-rule="evenodd" d="M913.903 554.706C914.705 544.582 916.81 534.498 914.705 524.294C911.297 507.534 906.486 491.295 901.153 474.956C887.26 432.374 856.226 400.578 833.952 363.349C831.366 359.019 828.118 355.029 825.853 350.558C824.109 347.15 823.187 343 819.738 341.116C789.686 324.376 767.173 295.206 730.746 288.59C722.706 287.127 714.467 285.523 706.407 284.46C681.127 281.173 655.706 279.148 631.228 271.53C629.484 271.008 627.338 271.008 625.534 271.429C608.995 275.058 592.575 273.434 576.196 270.427C573.089 269.845 569.62 269.064 566.714 269.845C544.32 275.8 520.543 274.817 498.691 283.057C487.925 287.107 477.601 291.858 465.913 292.86C455.929 293.682 447.849 299.115 440.993 305.992C432.813 314.171 423.351 319.985 413.247 325.659C396.487 335.101 384.638 350.518 372.088 364.812C354.807 384.399 340.914 405.289 331.632 430.53C324.855 448.893 313.568 466.556 303.585 484.118C290.092 507.754 277.202 531.591 267.017 556.831C266.055 559.117 264.611 561.362 262.968 563.247C259.96 566.675 256.332 569.943 251.44 567.397C247.11 565.111 248.433 560.44 249.596 557.172C258.116 533.596 258.998 508.055 272.27 485.341C282.374 468.139 290.594 449.335 297.55 430.169C301.8 418.421 307.714 406.652 315.413 396.869C323.171 387.146 327.762 376.48 332.674 365.514C341.415 345.907 356.932 331.413 372.429 317.259C392.758 298.755 415.352 283.699 440.773 272.392C455.628 265.796 467.917 254.469 484.597 250.239C529.906 238.711 575.735 230.351 622.447 231.855C643.657 232.496 665.971 230.151 686.4 239.914C689.146 241.237 692.655 241.418 695.822 241.357C734.815 240.515 766.972 258.458 797.966 278.727C818.696 292.259 838.222 307.616 857.288 323.514C867.352 331.874 874.65 342.018 879.501 353.947C883.892 364.652 889.886 374.476 897.805 382.695C916.911 402.503 928.578 427.101 942.051 450.377C948.867 462.165 952.656 476.359 954.921 489.932C959.833 519.141 963.923 548.572 962.179 578.423C961.778 584.939 960.475 590.893 957.949 596.747C950.912 612.946 940.747 615.572 926.834 604.545C923.967 602.28 922.664 598.03 918.194 597.849C914.846 600.355 914.284 604.345 912.52 607.653C905.423 620.925 891.71 622.408 881.927 610.78C877.376 605.408 874.83 598.952 872.945 592.036C867.132 570.624 860.436 549.434 854.682 528.003C844.918 491.756 824.61 461.243 802.417 431.672C797.866 425.558 792.714 419.623 789.406 412.887C782.249 398.292 769.919 388.85 756.307 382.274C734.053 371.529 710.878 362.687 687.522 354.207C654.423 342.198 620.462 344.404 587.664 348.794C564.829 351.841 538.867 353.285 520.182 371.669C497.548 373.894 486.582 392.799 471.486 405.67C458.675 416.656 443.018 424.916 435.801 441.716C434.538 444.663 429.907 446.287 426.679 448.232C424.514 449.555 420.424 449.876 419.983 451.48C415.452 467.358 399.855 473.392 390.593 484.94C387.886 488.308 384.618 492.718 384.638 496.607C384.839 517.457 368.5 530.108 360.481 546.787C358.857 550.115 356.471 553.604 353.464 555.629C348.652 558.896 343.64 559.297 342.337 551.559C341.275 545.324 339.651 538.949 342.899 532.894C354.125 512.245 360.441 489.591 369.923 468.2C380.188 445.004 396.246 425.558 411.964 406.111C433.255 379.788 459.497 358.337 486.903 338.71C500.215 329.187 517.255 325.759 532.692 320.727C564.187 310.503 597.567 307.856 630.205 302.343C645.061 299.857 658.954 307.255 673.689 307.215C694.058 307.135 712.402 313.73 729.202 324.957C742.995 334.179 758.873 339.352 772.946 348.453C814.225 375.097 842.633 412.126 865.608 454.567C877.035 475.738 890.086 496.006 897.564 519.101C900.652 528.744 903.94 538.307 907.087 547.93C908.049 550.837 908.009 554.406 913.984 554.746" fill="#C4EDFF"/>
<path fill-rule="evenodd" clip-rule="evenodd" d="M130.735 456.331C127.567 476.92 128.69 500.998 123.437 524.494C122.214 530.047 121.051 535.901 121.653 541.455C122.735 552.2 118.786 561.102 113.694 569.963C107.74 580.307 95.8713 580.688 89.9972 570.324C85.7471 562.846 84.7246 554.426 87.6115 546.386C97.3348 519.141 97.4952 490.633 99.3997 462.346C101.625 428.845 107.158 396.207 117.403 363.89C125.683 337.768 137.11 313.41 149.119 289.132C157.458 272.311 172.535 260.844 185.365 247.973C216.038 217.24 250.26 190.396 286.106 166.017C310.845 149.217 339.794 139.835 367.821 129.63C421.369 110.164 477.503 102.546 533.938 96.9722C554.127 94.9674 573.774 90.0156 594.162 88.4117C622.751 86.1664 650.898 85.3845 679.667 86.4671C705.128 87.4695 729.646 93.4237 754.886 94.5464C764.229 94.9674 773.431 98.7565 782.713 101.102C814.128 108.961 845.884 115.537 874.953 131.014C885.499 136.607 897.828 138.812 909.135 143.002C930.687 151.001 950.654 162.148 970.101 174.217C977.659 178.908 985.578 182.918 993.497 187.007C1010.56 195.808 1025.85 207.156 1037.86 222.372C1041.01 226.361 1044.02 230.551 1047.69 233.98C1094.6 277.504 1117.67 334.019 1135.38 393.26C1139.71 407.695 1141.87 422.871 1141.55 438.148C1141.53 439.431 1141.49 440.734 1141.71 441.957C1151.88 492.036 1142.21 542.477 1144.26 592.677C1144.32 593.94 1144.42 595.223 1144.36 596.466C1143.62 608.675 1138.76 616.013 1130.76 616.213C1119.86 616.434 1116.75 608.254 1115.41 599.954C1111.54 575.656 1104.96 551.839 1104.84 526.84C1104.64 490.693 1097.91 455.329 1090.53 419.964C1085.86 397.551 1079.42 375.899 1071.16 354.808C1052.42 306.734 1022.87 266.317 982.671 233.238C960.117 214.674 936.2 198.294 911.561 182.717C904.484 178.246 897.106 175.34 888.646 174.016C865.15 170.348 844.601 158.479 823.39 148.776C812.845 143.965 802.34 139.574 791.013 137.71C773.351 134.823 756.51 128.147 739.049 125.48C721.667 122.834 704.065 120.929 686.663 118.043C635.842 109.663 585.121 112.148 534.74 120.669C494.705 127.425 454.549 134.462 415.295 144.466C380.251 153.427 345.608 165.075 316.078 187.368C305.933 195.027 293.464 198.996 284.081 207.897C272.814 218.603 258.36 226.241 251.884 241.558C250.962 243.723 248.817 246.189 246.712 246.87C229.811 252.484 218.344 266.056 206.075 277.083C184.283 296.71 161.568 316.357 153.168 347.07C147.034 369.504 139.375 391.236 135.907 414.551C134.002 427.302 128.189 439.591 130.735 456.271" fill="#C4EDFF"/>
<path fill-rule="evenodd" clip-rule="evenodd" d="M611.562 158.078C642.536 162.228 672.528 158.94 701.698 166.057C717.937 170.026 734.035 174.497 750.354 178.005C793.136 187.187 833.753 203.226 872.406 222.512C894.138 233.398 915.108 249.115 930.946 268.943C943.836 285.101 958.953 299.095 973.507 313.449C990.889 330.65 1002.8 350.999 1014.2 371.849C1018.82 380.269 1023.99 388.388 1028.28 397.049C1038.5 417.779 1044.98 438.809 1042.49 462.125C1041.65 470.043 1045.16 477.1 1047.83 484.418C1054.24 501.819 1060.98 519.001 1055.16 538.607C1052.28 548.291 1055.18 559.036 1057.09 569.221C1059.31 581.229 1061.6 593.218 1059.83 605.668C1058.99 611.802 1057.25 616.393 1052.14 620.343C1034.99 633.514 1022.99 630.146 1015.55 609.617C1014.89 607.793 1013.88 606.008 1013.68 604.144C1011.3 578.002 1009.61 551.739 1006.49 525.697C1004.18 506.611 1001.31 487.425 996.282 468.921C987.381 436.122 978.499 403.304 959.975 373.854C950.252 358.397 940.709 343.521 925.974 332.334C912.582 322.15 901.014 310.061 891.451 296.128C884.815 286.485 876.776 278.526 865.71 273.414C856.428 269.103 847.707 263.59 840.55 255.751C835.377 250.058 828.802 245.587 820.883 243.923C819.018 243.522 817.114 242.76 815.55 241.698C776.396 215.295 729.885 211.606 685.76 202.324C651.498 195.146 615.752 197.111 580.247 199.256C539.931 201.682 501.88 213.971 462.526 219.926C451.019 221.67 439.972 225.559 430.189 232.315C428.605 233.418 427.222 235.162 425.458 235.643C396.047 243.843 373.493 263.289 349.396 280.49C340.675 286.745 334.42 294.564 327.965 302.383C320.126 311.845 312.708 321.027 301.221 326.962C291.477 331.973 284.2 340.775 281.032 351.881C273.334 379.086 255.351 400.577 239.994 423.292C235.063 430.609 230.712 437.065 230.852 445.545C231.013 456.892 228.367 467.036 222.051 476.599C219.706 480.168 217.841 485.32 218.443 489.33C222.252 514.309 208.399 534.838 202.104 557.212C199.878 565.271 193.443 568.599 186.186 569.12C179.149 569.601 177.304 562.585 174.398 557.773C170.608 551.538 168.664 544.642 170.047 537.364C176.462 503.383 183.299 469.442 189.694 435.501C194.566 409.799 208.218 389.732 218.363 367.198C233.358 333.898 258.438 308.918 284.18 285.382C299.176 271.709 314.753 258.337 329.468 244.204C341.417 232.776 357.154 227.564 371.348 220.828C390.875 211.526 409.82 200.299 431.251 194.665C442.759 191.638 453.124 185.062 464.852 181.293C505.629 168.182 548.131 165.295 589.911 158.238C597.409 156.975 605.327 158.058 611.582 158.058" fill="#C4EDFF"/>
<path fill-rule="evenodd" clip-rule="evenodd" d="M429.987 524.875C428.944 488.548 439.089 452.903 461.943 423.773C493.037 384.199 530.768 352.242 584.496 348.513C588.927 348.213 593.698 347.992 597.607 346.168C613.726 338.69 630.205 342.359 646.745 343.04C689.387 344.785 721.644 368.04 753.821 392.88C785.096 416.997 805.003 449.515 823.608 483.115C833.772 501.499 843.776 519.963 850.793 540.192C856.025 555.228 855.504 570.424 857.308 585.48C858.712 596.847 848.226 602.561 837.561 597.809C828.96 594 823.146 587.104 820.059 578.283C816.471 567.998 812 557.734 810.536 547.108C807.609 525.978 796.302 508.696 787.361 490.312C780.324 475.878 770.38 463.268 760.717 450.517C746.483 431.873 727.237 418.922 708.192 406.512C696.263 398.713 684.796 389.792 669.78 385.823C639.067 377.683 608.874 376.039 577.72 381.693C552.84 386.224 531.85 396.127 516.073 416.696C509.457 425.297 498.651 429.728 492.095 438.709C473.691 463.869 461.903 491.595 458.675 522.89C457.773 531.812 456.189 540.693 454.385 549.454C452.982 556.25 449.153 562.004 441.554 561.082C434.618 560.24 430.328 555.167 430.067 547.73C429.826 540.653 430.027 533.576 430.027 524.855" fill="#C4EDFF"/>
<path fill-rule="evenodd" clip-rule="evenodd" d="M802.521 560.78C802.12 570.804 802.862 580.828 797.71 589.87C788.748 605.547 773.131 605.948 763.348 590.691C758.616 583.334 757.293 574.834 755.609 566.413C751.8 547.087 747.851 527.962 739.972 509.558C733.978 495.544 726.259 483.596 713.048 476.779C691.656 465.773 671.488 451.479 646.669 448.632C625.398 446.226 604.789 449.935 584.4 455.629C581.092 456.531 578.285 458.135 576.241 460.801C557.937 484.197 531.694 501.999 525.319 533.775C524.717 536.803 522.913 540.131 520.648 542.256C516.939 545.784 512.629 550.395 507.196 549.032C501.462 547.608 500.199 541.554 499.818 536.281C498.394 518.439 498.996 500.837 506.474 484.057C518.603 456.832 536.085 435.32 564.332 422.77C574.998 418.039 585.122 411.122 596.449 408.656C615.615 404.506 634.801 397.069 655.009 404.286C659.84 406.01 664.892 408.516 670.325 406.932C677.462 404.887 682.735 408.135 688.549 411.804C700.177 419.141 712.667 425.216 724.375 432.473C746.588 446.246 764.571 465.051 777.461 487.204C790.513 509.658 801.459 533.836 802.541 560.78" fill="#C4EDFF"/>
<path fill-rule="evenodd" clip-rule="evenodd" d="M648.671 487.285C657.632 486.884 665.812 489.17 673.25 494.262C696.124 509.919 707.091 539.289 700.134 565.432C698.751 570.644 695.784 572.449 691.112 572.85C675.575 574.253 661.502 572.208 651.237 558.475C647.468 553.463 645.183 547.83 641.835 542.738C635.159 532.513 626.618 530.669 616.614 538.006C607.673 544.562 598.672 551.398 595.003 562.625C593.68 566.675 592.557 571.546 586.803 570.925C581.671 570.364 577.12 567.798 575.235 562.806C573.972 559.458 573.592 555.689 573.331 552.08C571.587 526.358 590.352 501.138 617.537 492.237C627.661 488.909 638.106 487.826 648.671 487.285Z" fill="#C4EDFF"/>
</g>
<defs>
<clipPath id="clip0_5529_8806">
<rect width="1218.11" height="644.881" fill="white"/>
</clipPath>
</defs>
</svg>
